<?xml version="1.0" encoding="utf-8"?>
<!-- Generator: Adobe Illustrator 27.5.0, SVG Export Plug-In . SVG Version: 6.00 Build 0)  -->
<svg version="1.1" xmlns="http://www.w3.org/2000/svg" xmlns:xlink="http://www.w3.org/1999/xlink" x="0px" y="0px"
	 viewBox="0 0 3000 2000" style="enable-background:new 0 0 3000 2000;" xml:space="preserve">
<g id="BACKGROUND">
	<rect style="fill:#FFFFFF;" width="3000" height="2000"/>
</g>
<g id="OBJECTS">
	<g>
		<g>
			<path style="fill:#708CD5;" d="M2216.5,753.795l-2.883-0.832l0.422-1.457l2.883,0.84L2216.5,753.795z M2221.695,737.15
				l-2.844-0.961c1.75-5.18,3.602-10.258,5.5-15.094l2.789,1.098C2225.262,726.982,2223.43,732.016,2221.695,737.15z
				 M2233.355,707.547l-2.727-1.25c2.266-4.953,4.676-9.799,7.16-14.406l2.641,1.426
				C2237.977,697.865,2235.598,702.652,2233.355,707.547z M2248.473,679.629l-2.523-1.617c2.949-4.607,6.063-9.045,9.258-13.191
				l2.375,1.832C2254.441,670.729,2251.375,675.096,2248.473,679.629z M2379.469,657.658c-3.488,0-7.016-0.643-10.203-1.857
				l1.07-2.805c4.621,1.768,10.039,2.141,14.863,1.01l0.68,2.922C2383.805,657.412,2381.648,657.658,2379.469,657.658z
				 M2267.832,654.578l-2.188-2.055c3.727-3.969,7.648-7.728,11.648-11.174l1.961,2.273
				C2275.328,647,2271.484,650.685,2267.832,654.578z M2399.926,647.482l-1.371-0.643l-1.184-0.928
				c1.977-3.045,2.957-6.473,2.957-10.252c0-1.279-0.117-2.592-0.344-3.9l2.953-0.516c0.258,1.479,0.391,2.963,0.391,4.416
				C2403.328,640.027,2402.184,644.006,2399.926,647.482z M2356.238,645.463c-3.094-4.285-5.328-9.541-6.461-15.199l2.945-0.59
				c1.047,5.242,3.105,10.094,5.945,14.035L2356.238,645.463z M2291.793,633.988l-1.688-2.477c4.418-3.016,9.07-5.822,13.824-8.342
				l1.406,2.652C2300.676,628.289,2296.121,631.037,2291.793,633.988z M2319.688,619.178l-1.117-2.785
				c4.898-1.957,10.031-3.727,15.258-5.26l0.844,2.879C2329.535,615.518,2324.492,617.256,2319.688,619.178z M2393.422,618.26
				c-2.242-2.588-4.926-4.754-7.758-6.26c-1.504-0.797-3.102-1.482-4.75-2.037l0.953-2.844c1.805,0.606,3.559,1.358,5.203,2.233
				c3.156,1.678,6.137,4.08,8.617,6.943L2393.422,618.26z M2352.5,614.291l-2.961-0.469c0.191-1.221,0.426-2.441,0.703-3.67
				c-0.055,0.012-0.109,0.023-0.164,0.035l-0.609-2.938c0.543-0.113,1.074-0.221,1.598-0.324c0.816-2.853,1.859-5.754,3.152-8.748
				l2.758,1.188c-1.027,2.373-1.887,4.68-2.594,6.945c4.156-0.717,7.785-1.121,11.164-1.25l0.117,2.996
				c-3.625,0.141-7.555,0.611-12.184,1.463C2353.078,611.121,2352.75,612.707,2352.5,614.291z M2364.41,585.479l-2.539-1.598
				l1.289-2.016c2.48-3.813,5.16-7.582,7.973-11.207l2.367,1.84c-2.758,3.559-5.391,7.26-7.824,11.002L2364.41,585.479z
				 M2383.801,560.453l-2.188-2.055c3.652-3.883,7.547-7.66,11.586-11.228l1.984,2.246
				C2391.219,552.924,2387.387,556.639,2383.801,560.453z M2407.527,539.461l-1.773-2.418c4.305-3.164,8.816-6.18,13.41-8.963
				l1.555,2.566C2416.203,533.383,2411.762,536.348,2407.527,539.461z M2434.637,523.033l-1.32-2.691
				c4.816-2.367,9.789-4.539,14.777-6.461l1.078,2.801C2444.266,518.57,2439.375,520.707,2434.637,523.033z M2464.207,511.654
				l-0.82-2.887c5.168-1.475,10.453-2.721,15.699-3.707l0.555,2.949C2474.48,508.979,2469.289,510.203,2464.207,511.654z
				 M2495.34,505.82l-0.273-2.988c5.027-0.459,10.105-0.693,15.098-0.693l1.027,0.002l-0.016,3l-1.012-0.002
				C2505.262,505.139,2500.277,505.367,2495.34,505.82z"/>
			<g>
				<path style="fill:#D3DFFF;" d="M2622.115,541.771h-89.563c-22.764,0-41.219-18.454-41.219-41.219v0
					c0-22.764,18.454-41.219,41.219-41.219h89.563c22.765,0,41.219,18.454,41.219,41.219v0
					C2663.333,523.317,2644.879,541.771,2622.115,541.771z"/>
				<g>
					<circle style="fill:#FFFFFF;" cx="2536.833" cy="500.552" r="10.5"/>
					<circle style="fill:#FFFFFF;" cx="2577.333" cy="500.552" r="10.5"/>
					<circle style="fill:#FFFFFF;" cx="2617.833" cy="500.552" r="10.5"/>
				</g>
			</g>
			<path style="fill:#708CD5;" d="M650.545,1145.109c-4.418-2.953-8.848-5.922-13.285-8.914l1.676-2.484
				c4.434,2.984,8.863,5.953,13.277,8.906L650.545,1145.109z M624.016,1127.211c-4.398-3.008-8.793-6.035-13.18-9.094l1.715-2.461
				c4.379,3.051,8.766,6.078,13.156,9.078L624.016,1127.211z M597.752,1108.875c-4.344-3.109-8.668-6.246-12.967-9.422l1.785-2.414
				c4.283,3.168,8.596,6.297,12.928,9.398L597.752,1108.875z M571.973,1089.824c-4.248-3.258-8.463-6.547-12.633-9.883l1.875-2.344
				c4.154,3.32,8.35,6.602,12.582,9.844L571.973,1089.824z M546.928,1069.777c-4.105-3.445-8.158-6.938-12.154-10.484l1.992-2.242
				c3.973,3.523,8.006,7,12.092,10.43L546.928,1069.777z M522.926,1048.461c-3.906-3.684-7.773-7.457-11.494-11.211l2.129-2.109
				c3.697,3.73,7.541,7.477,11.424,11.141L522.926,1048.461z M500.346,1025.625c-3.65-3.981-7.221-8.039-10.611-12.066l2.293-1.93
				c3.365,3.992,6.908,8.019,10.529,11.965L500.346,1025.625z M479.662,1001.029c-3.281-4.283-6.465-8.656-9.457-12.996l2.469-1.703
				c2.965,4.299,6.117,8.631,9.371,12.875L479.662,1001.029z M461.434,974.565c-2.818-4.6-5.514-9.289-8.008-13.938l2.645-1.418
				c2.467,4.598,5.131,9.236,7.922,13.789L461.434,974.565z M446.254,946.246c-2.248-4.875-4.361-9.855-6.279-14.807l2.797-1.086
				c1.896,4.894,3.984,9.818,6.205,14.635L446.254,946.246z M434.664,916.246c-1.586-5.088-3.021-10.313-4.264-15.525l2.918-0.695
				c1.227,5.146,2.645,10.305,4.209,15.326L434.664,916.246z M427.193,884.945c-0.891-5.262-1.615-10.629-2.158-15.951l2.984-0.305
				c0.535,5.258,1.254,10.558,2.131,15.756L427.193,884.945z M423.92,852.94c-0.117-3.117-0.174-6.234-0.176-9.356
				c0-2.246,0.029-4.492,0.09-6.738l3,0.082c-0.061,2.219-0.09,4.438-0.09,6.656c0.002,3.082,0.059,6.164,0.172,9.242L423.92,852.94
				z M427.762,821.051l-2.988-0.269c0.48-5.309,1.137-10.682,1.953-15.973l2.965,0.457
				C428.885,810.494,428.236,815.805,427.762,821.051z M432.621,789.635l-2.93-0.645c1.152-5.223,2.486-10.471,3.965-15.598
				l2.883,0.832C435.076,779.289,433.76,784.475,432.621,789.635z M441.44,759.098l-2.824-1.016
				c1.816-5.043,3.816-10.074,5.947-14.955l2.75,1.199C445.209,749.148,443.232,754.117,441.44,759.098z M454.154,729.977
				l-2.664-1.383c2.473-4.766,5.131-9.486,7.896-14.029l2.563,1.56C459.219,720.609,456.596,725.269,454.154,729.977z
				 M470.684,702.848l-2.449-1.734c3.08-4.346,6.361-8.656,9.752-12.811l2.324,1.898
				C476.961,694.301,473.723,698.557,470.684,702.848z M490.77,678.231l-2.191-2.047c3.633-3.889,7.457-7.721,11.367-11.393
				l2.055,2.188C498.137,670.606,494.357,674.391,490.77,678.231z M513.941,656.479l-1.906-2.316
				c4.115-3.391,8.402-6.697,12.742-9.828l1.754,2.434C522.244,649.861,518.008,653.129,513.941,656.479z M539.717,637.873
				l-1.598-2.539c4.522-2.846,9.193-5.582,13.887-8.137l1.434,2.637C548.803,632.357,544.185,635.063,539.717,637.873z
				 M567.641,622.68l-1.266-2.719c4.865-2.262,9.848-4.385,14.807-6.313l1.086,2.797C577.369,618.35,572.447,620.447,567.641,622.68
				z M851.264,617.371h-0.561v-3h0.561c5.27,0,10.432-0.146,15.346-0.434l0.176,2.996
				C861.813,617.225,856.59,617.371,851.264,617.371z M834.637,616.938c-5.127-0.258-10.371-0.623-16.029-1.119l0.262-2.988
				c5.621,0.492,10.828,0.855,15.916,1.111L834.637,616.938z M882.82,615.426l-0.395-2.973c5.34-0.705,10.6-1.623,15.633-2.725
				l0.641,2.93C893.586,613.779,888.242,614.711,882.82,615.426z M802.637,614.188c-5.287-0.611-10.594-1.279-15.912-1.986
				l0.394-2.973c5.303,0.703,10.59,1.371,15.861,1.978L802.637,614.188z M597.264,611.164l-0.902-2.859
				c5.102-1.613,10.316-3.076,15.496-4.348l0.715,2.914C607.455,608.127,602.305,609.572,597.264,611.164z M770.854,610.01
				l-15.846-2.262l0.422-2.969l15.846,2.262L770.854,610.01z M914.281,608.467l-0.918-2.855c5.049-1.623,10.033-3.51,14.811-5.604
				l1.203,2.746C924.508,604.891,919.428,606.813,914.281,608.467z M739.168,605.545c-5.283-0.707-10.568-1.385-15.85-2.004
				l0.352-2.981c5.297,0.623,10.598,1.301,15.896,2.012L739.168,605.545z M628.129,603.602l-0.52-2.953
				c5.295-0.928,10.658-1.682,15.941-2.24l0.316,2.984C638.65,601.943,633.354,602.688,628.129,603.602z M707.449,601.863
				c-5.623-0.518-10.822-0.912-15.898-1.205l0.172-2.996c5.111,0.295,10.344,0.693,16,1.213L707.449,601.863z M659.725,600.258
				l-0.117-2.996c5.338-0.211,10.695-0.264,16.07-0.189l-0.043,3C670.32,599.996,665.01,600.051,659.725,600.258z"/>
			<path style="fill:#708CD5;" d="M1962.941,1480.438l-0.008-3c5.234-0.02,10.586-0.188,15.902-0.504l0.18,2.992
				C1973.641,1480.246,1968.234,1480.418,1962.941,1480.438z M1946.863,1480.023c-5.313-0.285-10.707-0.742-16.027-1.348
				l0.344-2.984c5.258,0.602,10.59,1.055,15.848,1.34L1946.863,1480.023z M1995.039,1478.516l-0.344-2.977
				c5.203-0.605,10.504-1.363,15.762-2.258l0.5,2.961C2005.648,1477.145,2000.293,1477.91,1995.039,1478.516z M1914.914,1476.355
				c-5.285-0.938-10.586-2.047-15.75-3.305l0.711-2.914c5.102,1.242,10.34,2.34,15.563,3.266L1914.914,1476.355z M2026.719,1473.117
				l-0.656-2.93c1.859-0.418,3.719-0.859,5.582-1.313c3.293-0.813,6.582-1.676,9.855-2.586l0.805,2.891
				c-3.305,0.918-6.617,1.789-9.945,2.609C2030.477,1472.25,2028.602,1472.691,2026.719,1473.117z M1883.656,1468.742
				c-5.129-1.605-10.242-3.395-15.199-5.313l1.086-2.797c4.895,1.895,9.945,3.66,15.012,5.25L1883.656,1468.742z M2057.676,1464.527
				l-0.93-2.852c4.996-1.637,10.051-3.414,15.027-5.281l1.055,2.805C2067.813,1461.086,2062.715,1462.879,2057.676,1464.527z
				 M1853.645,1457.117c-4.832-2.258-9.66-4.719-14.348-7.313l1.453-2.625c4.629,2.563,9.395,4.988,14.168,7.219L1853.645,1457.117z
				 M2087.738,1453.25l-1.164-2.766c4.82-2.031,9.719-4.211,14.563-6.477l1.273,2.719
				C2097.531,1449.008,2092.594,1451.203,2087.738,1453.25z M1825.477,1441.527c-4.488-2.906-8.934-6.008-13.211-9.215l1.797-2.398
				c4.227,3.164,8.613,6.227,13.047,9.098L1825.477,1441.527z M2116.832,1439.684l-1.367-2.672c4.66-2.375,9.398-4.895,14.086-7.48
				l1.453,2.625C2126.285,1434.762,2121.516,1437.293,2116.832,1439.684z M2144.93,1424.188l-1.531-2.578
				c4.566-2.707,9.105-5.484,13.617-8.328l1.602,2.539C2154.082,1418.68,2149.52,1421.473,2144.93,1424.188z M1799.723,1422.219
				c-4.016-3.473-7.977-7.168-11.781-10.988l2.125-2.117c3.754,3.766,7.66,7.414,11.617,10.84L1799.723,1422.219z M2172.066,1407.09
				l-1.664-2.492c4.414-2.949,8.809-5.957,13.172-9.02l1.727,2.453C2180.914,1401.109,2176.504,1404.133,2172.066,1407.09z
				 M1776.98,1399.438c-3.473-4.004-6.883-8.211-10.137-12.504l2.391-1.813c3.215,4.238,6.582,8.395,10.012,12.348L1776.98,1399.438
				z M2198.32,1388.676l-1.773-2.414c4.277-3.148,8.535-6.344,12.77-9.594l1.828,2.383
				C2206.895,1382.309,2202.621,1385.52,2198.32,1388.676z M1757.527,1373.813c-2.961-4.457-5.816-9.059-8.496-13.672l2.594-1.508
				c2.648,4.563,5.477,9.113,8.402,13.523L1757.527,1373.813z M2223.773,1369.188l-1.867-2.352
				c4.164-3.309,8.305-6.664,12.418-10.051l1.906,2.313C2232.102,1362.5,2227.953,1365.863,2223.773,1369.188z M1741.359,1345.984
				c-2.391-4.734-4.691-9.633-6.832-14.566l2.75-1.195c2.121,4.879,4.395,9.727,6.762,14.41L1741.359,1345.984z M1728.547,1316.48
				c-1.848-5.027-3.57-10.156-5.117-15.246l2.867-0.875c1.531,5.039,3.234,10.113,5.063,15.09L1728.547,1316.48z M1719.195,1285.711
				c-1.258-5.191-2.375-10.488-3.32-15.742l2.953-0.531c0.934,5.195,2.039,10.434,3.281,15.57L1719.195,1285.711z
				 M1713.496,1254.055c-0.633-5.359-1.105-10.75-1.402-16.027l2.992-0.172c0.297,5.219,0.762,10.551,1.387,15.848
				L1713.496,1254.055z M1714.695,1221.961l-3-0.023c0.043-5.383,0.266-10.797,0.656-16.082l2.992,0.219
				C1714.957,1211.297,1714.738,1216.645,1714.695,1221.961z M1717.055,1190.273l-2.969-0.43c0.762-5.305,1.719-10.637,2.848-15.844
				l2.93,0.633C1718.754,1179.773,1717.809,1185.035,1717.055,1190.273z"/>
			<g>
				<circle style="fill:#D3DFFF;" cx="997.667" cy="1521.333" r="10.5"/>
				<circle style="fill:#D3DFFF;" cx="1038.167" cy="1521.333" r="10.5"/>
				<circle style="fill:#D3DFFF;" cx="1078.667" cy="1521.333" r="10.5"/>
			</g>
			<path style="fill:#D3DFFF;" d="M530.667,534.308c-0.209,0.37-0.449,0.758-0.674,1.1c-0.409,0.011-0.865,0.013-1.29-0.003
				c-92.07-0.574-76.275-78.888-32.149-59.854C503.48,427.997,578.449,455.606,530.667,534.308z"/>
		</g>
		<g>
			<g>
				<rect x="1328.457" y="1233.079" style="fill:#708CD5;" width="319.086" height="556"/>
				<rect x="1328.457" y="1233.079" style="opacity:0.3;fill:#1F3C88;" width="319.086" height="266.296"/>
				
					<ellipse transform="matrix(0.1549 -0.9879 0.9879 0.1549 -96.1929 2628.0151)" style="fill:#FFFFFF;" cx="1488" cy="1370.233" rx="72.233" ry="72.233"/>
				<path style="fill:#1F3C88;" d="M1758.667,1788.819h-541.333v-25.496c0-13.902,11.27-25.171,25.171-25.171h490.991
					c13.902,0,25.171,11.27,25.171,25.171V1788.819z"/>
			</g>
			<g>
				<g>
					<rect x="739.514" y="347.449" style="fill:#D3DFFF;" width="1496.972" height="1015.879"/>
					<rect x="797.826" y="392.906" style="fill:#FFFFFF;" width="1380.349" height="904.922"/>
				</g>
				<g>
					<g>
						<path style="fill:#FBC343;" d="M1059.304,625.156l28.234,57.207c0.746,1.511,2.187,2.558,3.855,2.801l63.132,9.174
							c4.199,0.61,5.876,5.771,2.838,8.733l-45.683,44.53c-1.207,1.176-1.757,2.871-1.472,4.532l10.784,62.877
							c0.717,4.183-3.673,7.372-7.429,5.397l-56.467-29.686c-1.492-0.784-3.273-0.784-4.765,0l-56.467,29.686
							c-3.756,1.975-8.146-1.215-7.429-5.397l10.784-62.877c0.285-1.661-0.266-3.356-1.472-4.532l-45.683-44.53
							c-3.039-2.962-1.362-8.123,2.838-8.733l63.132-9.174c1.668-0.242,3.109-1.29,3.855-2.801l28.234-57.207
							C1052,621.351,1057.426,621.351,1059.304,625.156z"/>
						<path style="fill:#FBC343;" d="M1357.925,625.156l28.234,57.207c0.746,1.511,2.187,2.558,3.855,2.801l63.132,9.174
							c4.199,0.61,5.876,5.771,2.838,8.733l-45.683,44.53c-1.207,1.176-1.757,2.871-1.473,4.532l10.784,62.877
							c0.717,4.183-3.673,7.372-7.429,5.397l-56.467-29.686c-1.492-0.784-3.274-0.784-4.765,0l-56.467,29.686
							c-3.756,1.975-8.146-1.215-7.429-5.397l10.784-62.877c0.285-1.661-0.266-3.356-1.473-4.532l-45.683-44.53
							c-3.039-2.962-1.362-8.123,2.838-8.733l63.132-9.174c1.668-0.242,3.109-1.29,3.855-2.801l28.233-57.207
							C1350.62,621.351,1356.047,621.351,1357.925,625.156z"/>
						<path style="fill:#FBC343;" d="M1656.545,625.156l28.233,57.207c0.746,1.511,2.187,2.558,3.855,2.801l63.132,9.174
							c4.2,0.61,5.876,5.771,2.838,8.733l-45.683,44.53c-1.207,1.176-1.757,2.871-1.473,4.532l10.784,62.877
							c0.717,4.183-3.673,7.372-7.429,5.397l-56.467-29.686c-1.492-0.784-3.274-0.784-4.765,0l-56.467,29.686
							c-3.756,1.975-8.146-1.215-7.429-5.397l10.784-62.877c0.285-1.661-0.266-3.356-1.473-4.532l-45.683-44.53
							c-3.039-2.962-1.362-8.123,2.838-8.733l63.132-9.174c1.667-0.242,3.109-1.29,3.855-2.801l28.233-57.207
							C1649.24,621.351,1654.667,621.351,1656.545,625.156z"/>
					</g>
					<rect x="1278.678" y="484.02" style="fill:#708CD5;" width="418.644" height="47.022"/>
					<rect x="1278.678" y="945.656" style="fill:#D3DFFF;" width="418.644" height="21.437"/>
					<g>
						<g>
							<path style="fill:#FFFFFF;" d="M1981.032,1215.997H994.968c-8.69,0-15.734-7.045-15.734-15.734v-143.059
								c0-8.69,7.044-15.734,15.734-15.734h986.064c8.69,0,15.734,7.045,15.734,15.734v143.059
								C1996.766,1208.952,1989.722,1215.997,1981.032,1215.997z"/>
							<path style="fill:#708CD5;" d="M1981.031,1217.996H994.969c-9.779,0-17.734-7.957-17.734-17.734v-143.059
								c0-9.777,7.955-17.734,17.734-17.734h986.063c9.777,0,17.734,7.957,17.734,17.734v143.059
								C1998.766,1210.039,1990.809,1217.996,1981.031,1217.996z M994.969,1043.469c-7.572,0-13.734,6.16-13.734,13.734v143.059
								c0,7.574,6.162,13.734,13.734,13.734h986.063c7.574,0,13.734-6.16,13.734-13.734v-143.059c0-7.574-6.16-13.734-13.734-13.734
								H994.969z"/>
						</g>
						<g>
							<rect x="1032" y="1089.398" style="fill:#708CD5;" width="912" height="4"/>
							<rect x="1032" y="1125.398" style="fill:#708CD5;" width="668" height="4"/>
							<rect x="1032" y="1164.066" style="fill:#708CD5;" width="518.668" height="4"/>
						</g>
					</g>
				</g>
			</g>
		</g>
		<g>
			<g>
				<g>
					<g>
						<g>
							<polygon style="fill:#D3DFFF;" points="610.656,1711.687 606.117,1788.862 487.842,1788.862 536.644,1750.274 553,1710 
															"/>
							
								<rect x="550.322" y="1740.023" transform="matrix(0.401 -0.9161 0.9161 0.401 -1278.8276 1558.4423)" style="fill:#102048;" width="4" height="34.228"/>
						</g>
						<polygon style="fill:#1F3C88;" points="746,1214 740.6,1236 714.52,1342.64 621.36,1723.04 532.84,1723.04 609.8,1261.2 
							617.96,1212.32 709.92,1213.52 						"/>
					</g>
					<g>
						<g>
							<polygon style="fill:#D3DFFF;" points="742.881,1711.687 747.42,1788.862 865.695,1788.862 816.893,1750.274 
								806.679,1710.552 							"/>
							
								<rect x="784.161" y="1754.469" transform="matrix(0.931 -0.365 0.365 0.931 -585.8387 413.5872)" style="fill:#102048;" width="33.905" height="4.003"/>
						</g>
						<polygon style="fill:#1F3C88;" points="822.24,1723.84 728.04,1723.84 714.52,1342.64 710.92,1241.72 709.92,1213.52 
							709.88,1212.32 774.76,1213 815.44,1213.44 						"/>
					</g>
					<polygon style="fill:#FFFFFF;" points="692.631,1448.379 688.701,1447.621 715.623,1307.633 750.273,1300.707 
						751.059,1304.629 719.045,1311.031 					"/>
				</g>
				<g>
					<path style="fill:#EE6F57;" d="M704.981,959.23l124.086,23.455L822,1013l11.424,197.307c0.1,11.094-8.894,20.125-19.988,20.069
						l-185.097-0.93c-11.252-0.057-20.216-9.427-19.774-20.671l-3.231-178.109L704.981,959.23z"/>
					<path style="fill:#FFBC96;" d="M848.157,943.087c-10.593-6.81-7.566-39.344-15.889-38.966
						c-8.323,0.378-9.079,23.077-7.945,27.617c1.135,4.54,3.405,18.537,3.405,18.537L848.157,943.087z"/>
					<path style="fill:#EE6F57;" d="M774,1051l120,26c32,6,54.409,7.385,75.972-9.071l-170.239-83.228L774,1051z"/>
					<path style="fill:#EE6F57;" d="M559.71,1126.064l62.799-63.178l82.471-103.657l-82.666,20.511
						c-11.704,2.904-22.261,9.268-30.295,18.261L486.22,1116.448c-8.629,11.878-8.13,29.171,4.459,41.21l54.372,35.854
						l40.376-47.586L559.71,1126.064z"/>
					<g>
						<path style="fill:#FFBC96;" d="M848.157,943.087c-31.022-16.646-37.075-17.403-47.667-6.053
							c-6.473,6.936-11.816,16.696-13.957,24.966c-1.682,6.498,0.979,13.356,6.311,17.433l6.889,5.268l35.855,22.741l34.61-50.81
							C861.214,950.744,853.538,945.974,848.157,943.087z"/>
						<path style="fill:#EE6F57;" d="M967.484,1024.975c-24.435-17.785-67.927-49.104-97.286-68.344l-34.61,50.81l100.452,63.713
							c14.332,9.09,33.391,3.413,40.414-12.036C981.945,1047.037,978.214,1032.784,967.484,1024.975z"/>
					</g>
					<g>
						<path style="fill:#FFBC96;" d="M647.1,1162.571c28.751-15.889-2.648-16.835-40.858-0.567l-20.816-16.077l-40.376,47.586
							l26.809,17.678c8.861,5.843,20.082,6.738,29.753,2.364c11.391-5.152,25.695-11.42,30.356-12.585
							c10.593-2.648,33.669-3.783,27.995-10.593l-9.836-2.648c0,0,18.537-4.918,15.889-9.079s-21.374-3.216-21.374-3.216
							s24.212-7.755,24.779-13.241C669.864,1157.902,647.1,1162.571,647.1,1162.571z"/>
						<g>
							<path style="fill:#E8947D;" d="M617.971,1171.703c-0.44,0-0.842-0.293-0.965-0.734c-0.147-0.535,0.168-1.082,0.699-1.23
								l34.426-9.457c0.541-0.137,1.084,0.172,1.23,0.699c0.146,0.535-0.168,1.082-0.699,1.23l-34.426,9.457
								C618.146,1171.691,618.059,1171.703,617.971,1171.703z"/>
							<path style="fill:#E8947D;" d="M620.238,1193.645c-0.48,0-0.904-0.348-0.984-0.836c-0.09-0.547,0.279-1.063,0.824-1.152
								l29.887-4.918c0.537-0.078,1.059,0.281,1.148,0.824c0.09,0.547-0.279,1.063-0.824,1.152l-29.887,4.918
								C620.348,1193.641,620.293,1193.645,620.238,1193.645z"/>
							<path style="fill:#E8947D;" d="M621.373,1181.164c-0.479,0-0.902-0.348-0.984-0.836c-0.092-0.543,0.277-1.059,0.822-1.152
								l27.238-4.543c0.539-0.086,1.059,0.281,1.15,0.824s-0.277,1.059-0.822,1.152l-27.238,4.543
								C621.484,1181.16,621.428,1181.164,621.373,1181.164z"/>
						</g>
					</g>
					<path style="fill:#6F3428;" d="M907.998,1058.168c-0.289,0-0.584-0.082-0.842-0.258l-72.412-49.227
						c-0.685-0.469-0.863-1.398-0.396-2.086c0.463-0.684,1.394-0.867,2.084-0.398l72.412,49.227
						c0.686,0.469,0.863,1.398,0.396,2.086C908.951,1057.938,908.479,1058.168,907.998,1058.168z"/>
					<path style="fill:#6F3428;" d="M827.998,1136.168c-0.785,0-1.445-0.613-1.496-1.406l-6.666-106.668
						c-0.051-0.828,0.578-1.539,1.404-1.59c0.799-0.109,1.539,0.578,1.59,1.402l6.668,106.668c0.051,0.828-0.578,1.539-1.404,1.59
						C828.063,1136.168,828.029,1136.168,827.998,1136.168z"/>
					<path style="fill:#6F3428;" d="M608,1116.168c-0.816,0-1.484-0.652-1.5-1.473l-1.334-72c-0.016-0.828,0.644-1.512,1.473-1.527
						c0.758-0.031,1.51,0.641,1.527,1.473l1.334,72c0.016,0.828-0.644,1.512-1.473,1.527
						C608.018,1116.168,608.01,1116.168,608,1116.168z"/>
					<path style="fill:#6F3428;" d="M529.332,1131.5c-0.742,0-1.387-0.551-1.486-1.309c-0.106-0.82,0.475-1.574,1.295-1.68
						l30.377-3.938c0.826-0.102,1.572,0.473,1.682,1.297c0.105,0.82-0.475,1.574-1.295,1.68l-30.377,3.938
						C529.461,1131.496,529.396,1131.5,529.332,1131.5z"/>
					<path style="fill:#6F3428;" d="M717.703,1018.211c-10.207,0-20.766-5.082-31.398-15.121c-0.604-0.568-0.631-1.517-0.061-2.119
						c0.566-0.602,1.52-0.635,2.119-0.06c10.385,9.801,20.557,14.656,30.258,14.285c9.486-0.313,19-5.547,28.279-15.549
						c0.563-0.609,1.512-0.643,2.119-0.08c0.608,0.563,0.645,1.512,0.08,2.119c-9.844,10.611-20.064,16.166-30.379,16.51
						C718.383,1018.207,718.043,1018.211,717.703,1018.211z"/>
				</g>
				<g>
					<g>
						<path style="fill:#FFBC96;" d="M741.947,919.623v45.791c0,13.944-11.305,25.249-25.249,25.249
							c-13.98,0-25.285-11.305-25.285-25.249v-45.791H741.947z"/>
						<path style="fill:#E8947D;" d="M741.947,935.029v30.278c-21.79-2.568-34.95-18.83-43.402-37.054L741.947,935.029z"/>
						<path style="fill:#FFBC96;" d="M755.92,922.16c-0.92,11.16-4.56,20.4-13.96,23.56c-1.24,0.44-2.52,0.76-3.96,0.96
							c-16.08,2.28-27.44-3.16-35.2-10.28c-3.88-3.56-6.88-7.52-9.12-11.12c-0.88-1.4-1.64-2.76-2.28-4c-1.6-3.12-2.56-5.6-2.96-6.8
							c-0.2-0.52-0.28-0.8-0.28-0.8l-0.16-12l-0.44-29l40.72-13.08L753,875c0.08,2.4,0.28,5.08,0.6,8.04
							c0.76,7.72,2.04,17,2.48,26.12C756.28,913.6,756.32,918.04,755.92,922.16z"/>
						<path style="fill:#102048;" d="M694.396,913.097c-2.011-11.17-2.216-21.712,0.594-31.205
							c21.204-12.883,48.685,2.629,62.913,1.206c2.353-0.235,4.5-1.582,5.718-3.609c24.261-40.381-51.232-61.392-86.76-13.051
							c-17.793,6.492-11.888,30.313,3.566,49.928L694.396,913.097z"/>
						
							<ellipse transform="matrix(0.9548 -0.2972 0.2972 0.9548 -240.4557 246.0818)" style="fill:#FFBC96;" cx="689.119" cy="913.884" rx="11.293" ry="12.333"/>
					</g>
					<g>
						<path style="fill:#102048;" d="M742.889,904.131c0.339,1.729,1.779,2.902,3.218,2.62c1.438-0.282,2.33-1.912,1.991-3.641
							c-0.339-1.729-1.78-2.902-3.218-2.62C743.442,900.772,742.55,902.402,742.889,904.131z"/>
						<path style="fill:#102048;" d="M722.116,905.023c0.339,1.729,1.779,2.902,3.218,2.62c1.438-0.282,2.33-1.912,1.991-3.641
							c-0.339-1.729-1.78-2.902-3.218-2.62C722.669,901.664,721.777,903.294,722.116,905.023z"/>
						<path style="fill:#E8947D;" d="M736.313,920.648c-0.512,0-0.947-0.392-0.994-0.914c-0.047-0.549,0.359-1.033,0.91-1.082
							c0.037-0.004,3.736-0.353,5.701-2.494c0.084-0.094,0.168-0.227,0.145-0.51c-0.15-1.73-3.482-4.902-5.549-6.492
							c-0.438-0.338-0.518-0.967-0.182-1.404c0.34-0.438,0.961-0.514,1.404-0.182c0.617,0.477,6.045,4.746,6.318,7.906
							c0.066,0.783-0.162,1.486-0.664,2.033c-2.496,2.721-6.82,3.119-7.002,3.135C736.371,920.646,736.342,920.648,736.313,920.648z
							"/>
						<path style="fill:#FFFFFF;" d="M742.644,925.897c-2.762,9.833-10.851,7.316-15.198,0.309L742.644,925.897z"/>
						<path style="fill:#102048;" d="M738.698,893.722c-0.173,2.851,3.904,2.085,5.505,2.097c3.303,0.025,6.449-1.028,6.457-2.007
							c0.007-0.979-2.664-1.792-5.968-1.817C741.39,891.97,738.823,891.671,738.698,893.722z"/>
						<path style="fill:#102048;" d="M728.041,893.42c0.794,3.096-3.681,3.532-5.372,4.049c-3.487,1.066-7.039,0.892-7.257-0.186
							c-0.217-1.079,2.433-2.818,5.921-3.885C724.82,892.332,727.469,891.193,728.041,893.42z"/>
						<path style="opacity:0.3;fill:#EE6F57;" d="M722.167,918.083c0,3.636-2.948,6.583-6.583,6.583
							c-3.636,0-6.583-2.948-6.583-6.583c0-3.636,2.948-6.583,6.583-6.583C719.219,911.5,722.167,914.448,722.167,918.083z"/>
						<path style="opacity:0.3;fill:#EE6F57;" d="M755.92,922.16c-3.2-0.44-5.68-3.16-5.68-6.48c0-3.36,2.56-6.16,5.84-6.52
							C756.28,913.6,756.32,918.04,755.92,922.16z"/>
					</g>
					<path style="fill:#102048;" d="M690.75,918.25c-0.553,0-1-0.447-1-1c0-2.606-0.613-4.477-1.771-5.414
						c-1.145-0.926-2.684-0.844-3.77-0.607c-0.529,0.102-1.07-0.227-1.188-0.77c-0.115-0.539,0.229-1.07,0.77-1.188
						c2.166-0.461,4.055-0.117,5.445,1.01c1.668,1.348,2.514,3.693,2.514,6.969C691.75,917.803,691.303,918.25,690.75,918.25z"/>
				</g>
			</g>
			<g>
				<path style="fill:#C6EAE9;" d="M493.004,876.756C509.749,858.69,520,834.517,520,807.941
					c0-55.932-45.342-101.274-101.274-101.274c-55.932,0-101.275,45.342-101.275,101.274c0,55.932,45.342,101.274,101.275,101.274
					c14.369,0,28.029-3.011,40.411-8.406L513.191,928L493.004,876.756z"/>
				<path style="fill:#FFFFFF;" d="M414.746,844.775l-35.17-48.885c-1.291-1.793-0.883-4.293,0.91-5.582
					c1.791-1.297,4.293-0.883,5.582,0.91l27.686,38.482l39.111-72.898c1.047-1.951,3.469-2.68,5.416-1.635
					c1.947,1.045,2.678,3.471,1.635,5.416L414.746,844.775z"/>
			</g>
		</g>
		<g>
			<g>
				<g>
					<polygon style="fill:#FFBC96;" points="2294.993,1407.526 2226.897,1439.304 2236.582,1717.395 2302.587,1726.47 					"/>
					<g>
						<polygon style="fill:#D3DFFF;" points="2236.582,1717.395 2237.49,1743.465 2178.474,1788.862 2304.073,1788.862 
							2302.587,1726.47 						"/>
						
							<rect x="2246.574" y="1737.059" transform="matrix(0.4995 -0.8663 0.8663 0.4995 -390.4792 2823.8606)" style="fill:#102048;" width="4.004" height="25.597"/>
					</g>
				</g>
				<g>
					<path style="fill:#FFBC96;" d="M2334.716,1464.639l-5.675-30.643l-78.31,24.968l7.621,37.413
						c3.103,15.233,12.365,28.506,25.591,36.676c11.519,7.115,25.216,9.842,38.582,7.682l170.014-27.477l11.923-64.585
						L2334.716,1464.639z"/>
					<path style="fill:#E8947D;" d="M2313.355,1543.027c-15.676,0-29.836-6.992-41.367-20.547
						c-10.34-12.148-14.867-25.07-15.055-25.613c-0.27-0.781,0.145-1.637,0.93-1.906c0.766-0.266,1.637,0.145,1.906,0.93
						c0.176,0.508,18.148,50.996,62.5,43.363c0.84-0.113,1.594,0.414,1.734,1.227c0.137,0.82-0.41,1.594-1.227,1.734
						C2319.582,1542.758,2316.441,1543.027,2313.355,1543.027z"/>
					<g>
						<polygon style="fill:#D3DFFF;" points="2574.185,1559.973 2563.971,1443.075 2504.463,1448.672 2492.539,1513.257 
							2526.518,1507.766 						"/>
						
							<rect x="2516.391" y="1491.265" transform="matrix(0.3436 -0.9391 0.9391 0.3436 259.4973 3357.8062)" style="fill:#102048;" width="30.886" height="4.001"/>
					</g>
				</g>
				<path style="fill:#EE6F57;" d="M2320.529,1210.415c32.345,41.992,17.591,81.715,7.377,129.382l30.761,122.87l-156.738,37.155
					l-10.214-269.545l63.556-34.615L2320.529,1210.415z"/>
				<g>
					<path style="fill:#E8947D;" d="M2213.123,938.956c0,0-18.171,10.929-14.221,15.315c3.95,4.387,12.229,5.92,12.229,5.92
						L2213.123,938.956z"/>
					
						<rect x="2202.094" y="972.094" transform="matrix(0.0523 -0.9986 0.9986 0.0523 1133.3384 3185.4277)" style="fill:#FFBC96;" width="85.662" height="47.032"/>
					<path style="fill:#E8947D;" d="M2261.496,976.924c-9.693,15.05-23.455,25.805-40.8,31.69l2.274-43.457L2261.496,976.924z"/>
					<path style="fill:#FFBC96;" d="M2214.711,921.22c0,0-19.889,60.557,7.155,65.052c27.044,4.495,39.649-9.364,39.649-9.364
						l9.087-39.123l-18.875-26.067L2214.711,921.22z"/>
					<path style="fill:#FFBC96;" d="M2258.777,954.552c-3.07,5.372-9.359,7.556-14.047,4.877s-5.999-9.206-2.928-14.578
						c3.07-5.372,9.359-7.556,14.047-4.877C2260.536,942.652,2261.848,949.179,2258.777,954.552z"/>
					<path style="fill:#102048;" d="M2246.866,949.962c-5.325-6.18-8.282-14.779-9.926-24.719
						c-64.667,20.815-47.886-47.605-14.303-29.348c49.653-32.38,98.424,40.35,47.594,74.208
						C2263.203,956.186,2255.356,950.031,2246.866,949.962z"/>
					<path style="fill:#102048;" d="M2274.829,899.736c33.283-20.256,86.118,5.314,54.704,95.38
						C2277.518,959.044,2301.342,919.339,2274.829,899.736z"/>
				</g>
				<g>
					<path style="fill:#FBC343;" d="M2003.948,744.535l20.857,62.061c0.559,1.662,1.899,2.943,3.585,3.425l63.115,18.059
						c4.253,1.217,5.257,6.786,1.696,9.411l-52.764,38.9c-1.415,1.043-2.224,2.716-2.163,4.473l2.26,65.376
						c0.152,4.409-4.814,7.083-8.411,4.528l-53.515-38.01c-1.425-1.012-3.256-1.261-4.899-0.666l-61.765,22.358
						c-4.152,1.503-8.226-2.407-6.894-6.618l19.734-62.371c0.531-1.677,0.199-3.509-0.886-4.894l-40.388-51.541
						c-2.727-3.48-0.274-8.576,4.147-8.615l65.688-0.58c1.75-0.016,3.381-0.889,4.363-2.338l36.778-54.253
						C1996.961,739.594,2002.544,740.356,2003.948,744.535z"/>
					<g>
						<path style="fill:#FFBC96;" d="M2087.585,803.55c-6.977-2.414,5.729,43.134,9.306,55.538c0.535,1.856-0.15,3.839-1.713,4.975
							c-2.258,1.641-5.446,0.911-6.747-1.557c-5.412-10.264-18.342-33.604-22.833-31.266c-4.971,2.617,7.287,36.293,24.094,76.409
							l40.364-30.519C2108.679,837.034,2090.616,804.599,2087.585,803.55z"/>
						<path style="fill:#102048;" d="M2210.29,1031.637c0,0-44.696-87.843-80.235-154.507l-40.364,30.519
							C2113,973,2147,1059,2147,1059L2210.29,1031.637z"/>
					</g>
					<g>
						<path style="fill:#FFBC96;" d="M1929.546,916.185c-2.27,3.405,14.47,27.806,14.47,27.806
							c-25.905-11.873-49.182-21.775-58.834-25.833c-2.396-1.007-5.14,0.756-5.049,3.353c1.102,31.531,54.521,60.783,54.521,60.783
							l14.976,22.709l33.251-48.598C1956.601,930.364,1933.385,910.427,1929.546,916.185z"/>
						<path style="fill:#1F3C88;" d="M2292.474,1017c-12.805-7.241-29.266-11.009-49.936-11.164
							c-14.638-0.11-29.228,1.817-43.48,5.155l-134.455,34.291c-9.58-12.384-48.152-55.613-81.722-88.878l-33.251,48.598
							l60.412,91.605c7.43,11.267,18.248,19.881,30.893,24.599c12.089,4.51,25.262,5.242,37.776,2.097l89.171-22.409l23.833,129.382
							l128.814-19.861C2338.088,1111.07,2322.881,1034.195,2292.474,1017z"/>
					</g>
				</g>
			</g>
			<g>
				<path style="fill:#C6EAE9;" d="M2500.447,1020.756c-16.745-18.066-26.996-42.239-26.996-68.815
					c0-55.932,45.342-101.274,101.274-101.274c55.932,0,101.274,45.342,101.274,101.274c0,55.932-45.342,101.274-101.274,101.274
					c-14.369,0-28.029-3.011-40.411-8.406L2480.26,1072L2500.447,1020.756z"/>
				<path style="fill:#FFFFFF;" d="M2568.496,999.537l-35.172-48.885c-1.293-1.793-0.883-4.293,0.91-5.582
					c1.797-1.289,4.293-0.881,5.582,0.91l27.688,38.482l39.113-72.896c1.039-1.947,3.465-2.682,5.414-1.635
					c1.945,1.045,2.68,3.471,1.633,5.416L2568.496,999.537z"/>
			</g>
		</g>
		<rect x="313.217" y="1786.996" style="fill:#102048;" width="2373.568" height="4"/>
	</g>
</g>
</svg>
