<svg width="1000" height="1000" viewBox="0 0 1000 1000" fill="none" xmlns="http://www.w3.org/2000/svg">
<path d="M440.593 172.628C481.224 158.483 548.155 158.26 588.611 166.506C430.024 152.469 234.742 349.01 363.538 520.5C432.258 612 605.884 616.102 649.754 502.689C724.007 310.732 588.752 250.705 473.845 293.05C398.126 320.954 372.716 435.654 454.313 469.494C486.726 482.936 530.389 480.505 552.658 456.15C561.718 446.242 566.786 433.13 569.456 419.697C575.283 390.38 523.388 369.109 523.388 399C523.388 452 461.581 440.906 454.313 399C451.278 381.5 463.489 357 473.845 346C501.937 316.161 568.542 301.793 608.737 334.5C652.415 370.041 657.394 427 618.966 479.48C585.291 525.47 526.396 541.76 470.865 527.698C335.652 493.457 346.22 400.61 374.987 334.5C394.785 289 425.713 226 552.768 226C620.565 226 653.92 231.313 710.27 293.666C718.972 303.295 723.323 308.109 728.907 318.209C734.492 328.31 735.841 333.089 738.541 342.646C759.147 415.609 752.247 514.067 715.536 562.344C655.902 640.767 520.049 696.819 402.565 633.86C134.905 490.42 266.167 233.348 440.593 172.628Z" fill="#7D522F" stroke="black"/>
<path d="M84.816 788.912C84.816 788.912 79.824 791.728 69.584 791.728C61.904 791.728 55.632 791.728 55.632 791.728V814H42.192V724.4H53.584H55.632H73.936C90.064 725.168 102.992 739.888 102.992 757.936C102.992 771.76 95.568 783.792 84.816 788.912ZM55.632 736.432V779.696H72.656C82.512 779.184 90.704 769.84 90.704 757.936C90.704 746.928 83.28 737.712 73.936 736.432H55.632ZM148.037 814.896C128.709 814.896 115.269 800.816 115.269 783.408V750.128H128.453V759.344V783.408C128.453 794.672 135.749 802.864 148.037 802.864C157.253 802.864 167.237 794.672 167.365 783.536V782.768V759.472V750.128H180.165V813.616H167.237V805.552C162.245 811.056 155.717 814.896 148.037 814.896ZM210.617 755.888C215.865 751.664 217.785 749.744 230.969 749.744C230.969 756.016 230.969 761.392 230.969 761.392C231.097 761.392 212.921 760.112 210.617 775.344V814H197.177V750H210.617V755.888ZM289.766 792.624C292.326 792.624 299.878 792.624 303.334 792.624C297.19 807.6 284.646 815.024 271.59 815.024C253.414 815.024 238.822 800.048 238.822 782C238.822 763.824 253.414 748.848 271.59 748.848C289.638 748.848 304.23 763.824 304.23 782C304.23 783.152 304.23 784.56 304.102 785.584H292.326H285.798H251.366C253.03 795.44 261.222 803.12 271.59 803.12C279.526 803.12 286.438 799.28 289.766 792.624ZM252.646 773.552C252.262 774.448 251.878 775.216 251.75 775.984H253.926H287.718H291.558C291.174 774.96 290.534 773.936 290.15 772.912C286.822 765.872 279.91 760.624 271.59 760.624C262.886 760.624 255.846 766.128 252.646 773.552ZM473.127 724.272L438.951 816.176L412.711 756.528L386.471 816.176L352.295 724.272H367.655L382.631 765.744L387.879 781.616L394.407 766L412.711 724.272V725.168V724.272L431.271 767.024L437.415 781.872L442.279 767.28L457.767 724.272H473.127ZM513.248 748.464C531.68 748.464 546.784 763.312 546.784 781.744C546.784 800.176 531.68 815.152 513.248 815.152C494.816 815.152 480.224 800.176 480.224 781.744C480.224 763.312 494.816 748.464 513.248 748.464ZM513.248 803.632C525.664 803.632 534.496 794.16 534.496 781.744C534.496 769.456 525.664 759.984 513.248 759.984C501.088 759.984 491.872 769.456 491.872 781.744C491.872 794.16 501.088 803.632 513.248 803.632ZM588.623 748.464C607.055 748.464 622.159 763.312 622.159 781.744C622.159 800.176 607.055 815.152 588.623 815.152C570.191 815.152 555.599 800.176 555.599 781.744C555.599 763.312 570.191 748.464 588.623 748.464ZM588.623 803.632C601.039 803.632 609.871 794.16 609.871 781.744C609.871 769.456 601.039 759.984 588.623 759.984C576.463 759.984 567.247 769.456 567.247 781.744C567.247 794.16 576.463 803.632 588.623 803.632ZM630.59 782.64C630.59 764.976 644.926 750.768 662.462 750.768C669.374 750.768 675.902 752.944 681.022 756.528C682.174 757.424 683.326 758.576 684.478 759.472V755.248V724.4H697.406V813.616H684.478V810.16V806.064C683.326 807.216 682.046 808.24 680.766 809.136C675.518 812.72 669.246 814.768 662.462 814.768C644.926 814.768 630.59 800.432 630.59 782.64ZM642.494 782.64C642.494 794.16 651.07 803.248 662.462 803.248C673.854 803.248 684.478 794.16 684.478 782.64C684.478 771.376 673.854 762.288 662.462 762.288C651.07 762.288 642.494 771.376 642.494 782.64ZM712.519 750.768H725.447V813.872H712.519V750.768ZM725.063 724.528V736.56H712.903V724.528H725.063ZM768.62 814.768C748.268 814.768 735.596 799.92 735.596 781.616C735.596 761.904 750.444 749.104 768.62 749.104C777.196 749.104 783.596 750.512 790.252 754.864V750H803.308V840.88H790.252V807.344C784.62 813.488 775.66 814.768 768.62 814.768ZM768.62 760.624C756.844 760.624 748.14 769.84 748.14 781.616C748.14 793.392 756.844 802.48 768.62 802.48C780.524 802.48 790.124 793.392 790.124 781.616C790.124 769.84 780.524 760.624 768.62 760.624ZM852.037 814.896C832.709 814.896 819.269 800.816 819.269 783.408V750.128H832.453V759.344V783.408C832.453 794.672 839.749 802.864 852.037 802.864C861.253 802.864 871.237 794.672 871.365 783.536V782.768V759.472V750.128H884.165V813.616H871.237V805.552C866.245 811.056 859.717 814.896 852.037 814.896ZM947.641 792.624C950.201 792.624 957.753 792.624 961.209 792.624C955.065 807.6 942.521 815.024 929.465 815.024C911.289 815.024 896.697 800.048 896.697 782C896.697 763.824 911.289 748.848 929.465 748.848C947.513 748.848 962.105 763.824 962.105 782C962.105 783.152 962.105 784.56 961.977 785.584H950.201H943.673H909.241C910.905 795.44 919.097 803.12 929.465 803.12C937.401 803.12 944.313 799.28 947.641 792.624ZM910.521 773.552C910.137 774.448 909.753 775.216 909.625 775.984H911.801H945.593H949.433C949.049 774.96 948.409 773.936 948.025 772.912C944.697 765.872 937.785 760.624 929.465 760.624C920.761 760.624 913.721 766.128 910.521 773.552Z" fill="black"/>
</svg>
