<svg width="502" height="502" viewBox="0 0 502 502" fill="none" xmlns="http://www.w3.org/2000/svg">
<path d="M191.593 12.6276C232.224 -1.51671 299.155 -1.73992 339.611 6.50645C181.024 -7.53111 -14.2581 189.01 114.538 360.5C183.258 452 356.884 456.102 400.754 342.689C475.007 150.732 339.752 90.7047 224.845 133.05C149.126 160.954 123.716 275.654 205.313 309.494C237.726 322.936 281.389 320.505 303.658 296.15C312.718 286.242 317.786 273.13 320.456 259.697C326.283 230.38 274.388 209.109 274.388 239C274.388 292 212.581 280.906 205.313 239C202.278 221.5 214.489 197 224.845 186C252.937 156.161 319.542 141.793 359.737 174.5C403.415 210.041 408.394 267 369.966 319.48C336.291 365.47 277.396 381.76 221.865 367.698C86.6515 333.457 97.2204 240.61 125.987 174.5C145.785 129 176.713 66 303.768 66C371.565 66 404.92 71.3129 461.27 133.666C469.972 143.295 474.323 148.109 479.907 158.209C485.492 168.31 486.841 173.089 489.541 182.646C510.147 255.609 503.247 354.067 466.536 402.344C406.902 480.767 271.049 536.819 153.565 473.86C-114.095 330.42 17.1675 73.3478 191.593 12.6276Z" fill="#7D522F" stroke="black"/>
</svg>
