<svg width="500" height="500" viewBox="0 0 500 500" fill="none" xmlns="http://www.w3.org/2000/svg">
<path d="M190.593 11.6276C231.224 -2.51671 298.155 -2.73992 338.611 5.50645C180.024 -8.53111 -15.2581 188.01 113.538 359.5C182.258 451 355.884 455.102 399.754 341.689C474.007 149.732 338.752 89.7047 223.845 132.05C148.126 159.954 122.716 274.654 204.313 308.494C236.726 321.936 280.389 319.505 302.658 295.15C311.718 285.242 316.786 272.13 319.456 258.697C325.283 229.38 273.388 208.109 273.388 238C273.388 291 211.581 279.906 204.313 238C201.278 220.5 213.489 196 223.845 185C251.937 155.161 318.542 140.793 358.737 173.5C402.415 209.041 407.394 266 368.966 318.48C335.291 364.47 276.396 380.76 220.865 366.698C85.6515 332.457 96.2204 239.61 124.987 173.5C144.785 128 175.713 65 302.768 65C370.565 65 403.92 70.3129 460.27 132.666C468.972 142.295 473.323 147.109 478.907 157.209C484.492 167.31 485.841 172.089 488.541 181.646C509.147 254.609 502.247 353.067 465.536 401.344C405.902 479.767 270.049 535.819 152.565 472.86C-115.095 329.42 16.1675 72.3478 190.593 11.6276Z" fill="white"/>
</svg>
